<?xml version="1.0" encoding="UTF-8"?>
<!DOCTYPE svg PUBLIC "-//W3C//DTD SVG 1.1//EN" "http://www.w3.org/Graphics/SVG/1.1/DTD/svg11.dtd">
<!-- Creator: CorelDRAW 2020 (64-Bit) -->
<svg xmlns="http://www.w3.org/2000/svg" xml:space="preserve" width="64.6769mm" height="18.4711mm" version="1.1" style="shape-rendering:geometricPrecision; text-rendering:geometricPrecision; image-rendering:optimizeQuality; fill-rule:evenodd; clip-rule:evenodd"
viewBox="0 0 1106.47 316"
 xmlns:xlink="http://www.w3.org/1999/xlink"
 xmlns:xodm="http://www.corel.com/coreldraw/odm/2003">
 <defs>
  <style type="text/css">
   <![CDATA[
    .str0 {stroke:#2B2A29;stroke-width:3.42;stroke-miterlimit:22.9256}
    .fil8 {fill:#2B2A29}
    .fil2 {fill:#2B2A29;fill-rule:nonzero}
    .fil1 {fill:url(#id0)}
    .fil7 {fill:url(#id1)}
    .fil6 {fill:url(#id2)}
    .fil4 {fill:url(#id3)}
    .fil5 {fill:url(#id4)}
    .fil0 {fill:url(#id5)}
    .fil3 {fill:url(#id6)}
   ]]>
  </style>
  <linearGradient id="id0" gradientUnits="userSpaceOnUse" x1="501.7" y1="57.41" x2="501.7" y2="31.88">
   <stop offset="0" style="stop-opacity:1; stop-color:#094985"/>
   <stop offset="1" style="stop-opacity:1; stop-color:#00A0E3"/>
  </linearGradient>
  <linearGradient id="id1" gradientUnits="userSpaceOnUse" x1="371.19" y1="296.47" x2="371.19" y2="243.7">
   <stop offset="0" style="stop-opacity:1; stop-color:#00A0E3"/>
   <stop offset="1" style="stop-opacity:1; stop-color:#03508B"/>
  </linearGradient>
  <linearGradient id="id2" gradientUnits="userSpaceOnUse" xlink:href="#id0" x1="507.98" y1="59.9" x2="507.98" y2="38.5">
  </linearGradient>
  <linearGradient id="id3" gradientUnits="userSpaceOnUse" xlink:href="#id0" x1="151.47" y1="45.99" x2="151.47" y2="0">
  </linearGradient>
  <linearGradient id="id4" gradientUnits="userSpaceOnUse" xlink:href="#id0" x1="478.37" y1="50.46" x2="478.37" y2="11.92">
  </linearGradient>
  <linearGradient id="id5" gradientUnits="userSpaceOnUse" xlink:href="#id0" x1="467.06" y1="45.99" x2="467.06" y2="0">
  </linearGradient>
  <linearGradient id="id6" gradientUnits="userSpaceOnUse" xlink:href="#id0" x1="162.77" y1="50.46" x2="162.77" y2="11.92">
  </linearGradient>
 </defs>
 <g id="Layer_x0020_1">
  <metadata id="CorelCorpID_0Corel-Layer"/>
  <g id="_2283147143968">
   <path class="fil0" d="M463.41 46.03c-1.2,-5.37 1.95,-9.35 4.31,-12.23l3.01 -3.53c7.38,-8.51 14.99,-18.1 5.07,-29.11l-1.04 -1.02c-0.04,-0.04 -0.13,-0.1 -0.2,-0.14 -0.33,8.74 -7.92,15.84 -12.37,21.74 -2.3,3.06 -4.93,7.12 -4.63,12.47 0.16,2.76 0.8,4.67 1.82,6.79 0.52,1.08 0.89,1.81 1.67,2.72l1.54 1.75c0.7,0.6 -0.01,0.12 0.82,0.55l0 0z"/>
   <path class="fil1" d="M499.67 57.44c-0.67,-2.98 1.08,-5.19 2.4,-6.79l1.67 -1.96c4.1,-4.73 8.32,-10.05 2.81,-16.16l-0.57 -0.57c-0.03,-0.02 -0.07,-0.05 -0.11,-0.08 -0.18,4.85 -4.4,8.8 -6.87,12.07 -1.28,1.7 -2.74,3.96 -2.57,6.93 0.09,1.53 0.44,2.59 1.01,3.77 0.29,0.6 0.5,1 0.93,1.51l0.85 0.97c0.39,0.33 -0,0.07 0.45,0.31l0 0z"/>
   <path class="fil2" d="M-0 212.14m100.14 -21.05l-72.87 0 0 -127.7 -27.27 0 0 148.75 27.03 0 0 0 73.11 0 0 -21.05z"/>
   <path class="fil2" d="M146.21 212.14m27.27 0l0 -148.75 -27.27 0 0 148.75 27.27 0z"/>
   <path class="fil2" d="M235.77 212.14m164.08 0l0 -155.56 -82.04 104.24 -82.04 -104.24 0 155.56 27.27 0 0 -78.98 54.77 69.36 54.54 -69.36 0 78.98 27.5 0z"/>
   <path class="fil2" d="M462.38 212.14m27.27 0l0 -148.75 -27.27 0 0 148.75 27.27 0z"/>
   <path class="fil2" d="M551.94 212.14m137.05 6.82l0 -155.56 -27.5 0 0 95.42 -109.54 -102.44 0 155.76 27.27 0 0 -95.62 109.78 102.44z"/>
   <path class="fil2" d="M745.87 212.14m87.21 0c11.75,0 23.27,-2 34.08,-5.81 10.34,-3.81 19.51,-9.22 27.74,-16.04 7.99,-6.82 14.1,-14.63 18.57,-23.66 4.47,-9.02 6.82,-18.84 6.82,-28.87 0,-10.02 -2.35,-19.85 -6.82,-29.07 -4.47,-8.82 -10.58,-16.64 -18.57,-23.65 -8.23,-6.82 -17.4,-12.03 -27.74,-15.84 -10.81,-3.81 -22.33,-5.81 -34.08,-5.81 -11.75,0 -23.27,2.01 -33.85,5.81 -10.58,3.81 -19.75,9.02 -27.74,15.84 -7.99,7.02 -14.34,14.83 -18.81,23.65 -4.47,9.22 -6.82,19.04 -6.82,29.07 0,10.02 2.35,19.85 6.82,28.87 4.47,9.02 10.81,16.84 18.81,23.66 7.99,6.82 17.16,12.23 27.74,16.04 10.58,3.81 22.1,5.81 33.85,5.81zm0 -125.49c15.98,0 31.03,5.41 42.31,15.04 11.28,9.62 17.63,22.45 17.63,36.08 0,13.63 -6.35,26.46 -17.63,36.09 -11.28,9.62 -26.33,15.03 -42.31,15.03 -15.99,0 -31.03,-5.41 -42.31,-15.03 -11.28,-9.62 -17.63,-22.45 -17.63,-36.09 0,-13.63 6.35,-26.46 17.63,-36.08 11.28,-9.62 26.33,-15.04 42.31,-15.04z"/>
   <path class="fil2" d="M944.98 212.14m161.49 0l-63.7 -79.58 55.48 -69.16 -34.32 0 -38.32 47.71 -38.08 -47.71 -34.32 0 55.24 69.16 -63.47 79.58 34.32 0 46.31 -58.14 46.54 58.14 34.32 0z"/>
   <path class="fil3" d="M167.62 11.92c-0.5,5.37 -0.09,6.02 -4.07,11.76 -1.61,2.33 -4.17,5.15 -6.16,7.5 -0.43,0.51 -0.63,0.59 -1.05,1.11l-1.72 2.13c-1.97,2.51 -4.03,4.66 -3.83,8.28 0.25,4.47 3.88,7.88 8.56,7.82 4.36,-0.05 8.41,-1.84 11.37,-4.64 7.1,-6.72 6.41,-15.23 2.63,-23.73 -0.98,-2.21 -4.43,-8.86 -5.73,-10.22z"/>
   <path class="fil4" d="M147.81 46.03c-1.2,-5.37 1.95,-9.35 4.32,-12.23l3.01 -3.53c7.38,-8.51 14.99,-18.1 5.07,-29.11l-1.04 -1.02c-0.05,-0.04 -0.13,-0.1 -0.2,-0.14 -0.33,8.74 -7.92,15.84 -12.37,21.74 -2.3,3.06 -4.93,7.12 -4.63,12.47 0.16,2.76 0.79,4.67 1.82,6.79 0.52,1.08 0.89,1.81 1.67,2.72l1.54 1.75c0.7,0.6 -0.01,0.12 0.82,0.55l0 0z"/>
   <path class="fil5" d="M483.22 11.92c-0.5,5.37 -0.09,6.02 -4.07,11.76 -1.61,2.33 -4.17,5.15 -6.16,7.5 -0.43,0.51 -0.63,0.59 -1.05,1.11l-1.72 2.13c-1.98,2.51 -4.03,4.66 -3.83,8.28 0.25,4.47 3.88,7.88 8.56,7.82 4.36,-0.05 8.41,-1.84 11.37,-4.64 7.1,-6.72 6.41,-15.23 2.63,-23.73 -0.98,-2.21 -4.43,-8.86 -5.73,-10.22z"/>
   <path class="fil6" d="M510.67 38.5c-0.28,2.98 -0.05,3.34 -2.26,6.53 -0.9,1.29 -2.32,2.86 -3.42,4.16 -0.24,0.28 -0.35,0.33 -0.58,0.62l-0.95 1.18c-1.1,1.4 -2.24,2.59 -2.13,4.6 0.14,2.48 2.15,4.37 4.75,4.34 2.42,-0.03 4.67,-1.02 6.31,-2.58 3.95,-3.73 3.56,-8.45 1.46,-13.18 -0.55,-1.23 -2.46,-4.92 -3.18,-5.67l0 0z"/>
   <path class="fil2" d="M117.1 293.16m13.74 -8.56c2.49,-2.36 4.58,-5.32 6.13,-8.76 1.55,-3.44 2.96,-8.49 4.31,-15.16l0.47 -2.76c0.47,-4.11 1.08,-6.74 1.69,-7.95 0.61,-1.14 1.68,-1.75 3.37,-1.75 0.74,0 1.48,0.14 2.09,0.47 0.61,0.34 0.88,0.74 0.81,1.14l-1.62 11.59c-0.07,0.74 -0.14,1.28 -0.2,1.75 -0.07,0.47 -0.07,1.14 -0.07,2.16 0,2.36 0.27,5.59 0.81,9.57 0.34,2.49 1.08,4.92 2.09,7.41l2.02 -3.71c2.63,-5.12 4.65,-9.91 6,-14.42 1.69,-5.59 2.49,-9.36 2.49,-11.39l0.47 -6.33c0,-0.88 0.74,-1.48 2.16,-1.75 0.14,-0.07 0.27,-0.07 0.41,-0.07 0.2,0 0.27,0 0.34,0 1.21,0 1.82,1.01 1.82,3.1 0,2.36 -0.74,7.55 -2.29,15.56 -0.2,1.14 -0.4,2.02 -0.61,2.69 -0.2,0.74 -0.54,2.09 -1.14,4.11 -0.61,2.02 -0.94,3.1 -1.01,3.3 -0.27,0.81 -0.81,2.29 -1.62,4.45 -2.36,5.79 -4.04,9.57 -5.05,11.32 -1.01,1.75 -1.95,2.76 -2.76,2.96 -0.81,0.2 -1.48,0.41 -2.09,0.54 -0.61,0.13 -1.08,0.2 -1.41,0.2 -0.88,0 -1.55,-0.47 -2.09,-1.48 -0.34,-0.61 -0.74,-1.55 -1.21,-2.76l-1.55 -3.97 -0.13 -0.34 -1.08 -3.97 -0.81 -2.96 -0.07 -0.2 -0.27 -0.88 -0.27 0.54 -0.2 0.4 -0.27 0.67 -0.88 1.95c-0.34,0.88 -1.01,2.16 -1.89,3.84l-0.14 0.27 -2.49 4.24c-1.21,2.09 -2.09,3.44 -2.63,4.04 -0.61,0.67 -1.28,1.08 -2.02,1.28 -0.2,0.07 -0.67,0.13 -1.41,0.34 -0.81,0.2 -1.35,0.27 -1.62,0.27 -1.15,0 -1.95,-1.15 -2.56,-3.5 -0.2,-0.81 -0.67,-3.17 -1.48,-7.14 -0.2,-1.28 -0.41,-2.22 -0.47,-2.83 -0.07,-0.61 -0.27,-2.09 -0.61,-4.51l-0.34 -2.49 -0.41 -3.1 -0.4 -2.9 -0.47 -3.44 -0.34 -0.2 -0.4 -0.27c-1.14,-0.87 -1.89,-1.95 -2.22,-3.37 -0.41,-1.35 -0.61,-3.71 -0.61,-7.07 0,-2.22 0.2,-3.97 0.54,-5.32 0.34,-1.28 0.81,-2.36 1.55,-3.17 0.74,-0.74 1.62,-1.14 2.76,-1.14 1.62,0 2.96,0.74 3.97,2.16 0.67,0.94 1.15,1.62 1.35,2.09 0.2,0.47 0.27,1.14 0.27,2.02 0,1.28 -0.07,2.63 -0.2,4.04 -0.2,1.41 -0.34,2.49 -0.4,3.23 -0.07,0.81 -0.14,1.35 -0.14,1.69 0,0.34 0,0.61 0,0.81 0,1.35 0.07,2.83 0.27,4.51 0.2,1.69 0.54,4.45 1.14,8.36 0.27,1.75 0.54,3.37 0.81,4.85 0.27,1.48 0.61,3.1 1.08,4.78l0.34 1.01 0.4 1.35zm30.99 8.56m4.78 -13.14l0.47 -3.3c0.47,-3.23 1.01,-6.2 1.62,-8.89 0.54,-2.69 1.01,-4.85 1.48,-6.47 1.08,-3.71 2.09,-6.47 2.96,-8.29 0.88,-1.82 1.89,-3.37 3.03,-4.65 1.35,-1.41 2.63,-2.56 3.84,-3.3 1.21,-0.74 2.56,-1.35 4.11,-1.69 0.54,-0.07 0.94,-0.14 1.21,-0.14 2.09,0 3.24,0.88 3.44,2.7 0.07,0.27 0.07,0.67 0.07,1.28 0,0.81 -0.14,1.68 -0.34,2.69 -0.2,1.01 -0.61,2.56 -1.21,4.58 -0.61,2.02 -1.75,4.45 -3.37,7.34 -1.82,3.17 -3.91,6.33 -6.26,9.43 -1.15,1.48 -1.75,2.29 -1.82,2.36 -0.34,0.47 -0.88,1.08 -1.62,1.82l-0.61 0.67 -0.81 0.88 -0.81 3.91 -0.14 1.28 -0.41 2.9c-0.27,1.68 -0.4,2.96 -0.47,3.84 -0.07,0.88 -0.07,2.02 -0.07,3.37 0.41,-1.01 0.74,-1.89 1.08,-2.56 0.07,-0.2 0.54,-1.01 1.28,-2.49 1.01,-1.95 1.89,-3.57 2.69,-4.99 0.81,-1.41 1.48,-2.43 1.95,-3.17 1.41,-2.09 2.43,-3.5 3.17,-4.25 0.74,-0.74 1.48,-1.21 2.29,-1.48 0.81,-0.2 1.48,-0.34 2.02,-0.34 1.55,0 2.29,1.28 2.29,3.91 0,0.81 0.13,2.09 0.47,3.84l0.27 1.82 0.88 3.71c0.81,2.36 1.75,3.5 2.76,3.5 0.88,0 2.36,-0.81 4.38,-2.49l0.94 -0.94c1.55,-1.75 2.63,-2.63 3.1,-2.63 0.07,0 0.47,0.07 1.08,0.27 0,1.55 -0.54,2.96 -1.55,4.18 -1.08,1.28 -3.03,2.76 -5.79,4.45 -1.62,0.94 -3.1,1.41 -4.45,1.41 -1.62,0 -3.03,-0.74 -4.31,-2.29 -1.28,-1.48 -2.43,-3.84 -3.44,-7.07l-1.01 -3.23 -0.2 -0.67c-1.41,1.55 -2.83,3.5 -4.31,6 -0.61,1.01 -1.14,2.09 -1.75,3.17 -0.4,0.81 -0.74,1.48 -1.01,2.09 -1.15,2.96 -2.49,4.45 -3.91,4.45 -0.67,0 -1.41,-0.2 -2.16,-0.61 -0.81,-0.47 -1.35,-1.08 -1.55,-1.82 -0.27,-0.74 -0.4,-1.96 -0.4,-3.5l0.07 -3.24 0.07 -0.61 0.07 -2.09c-0.4,0.34 -0.74,0.67 -1.01,1.01l-1.08 1.21c-0.2,0.34 -0.47,0.47 -0.74,0.34 -0.94,-0.2 -1.28,-0.88 -1.08,-1.89 0.2,-0.61 0.54,-1.15 0.88,-1.55l0.88 -0.88 1.55 -1.48 0.27 -0.34 1.01 -1.08zm15.7 -20.15l2.69 -5.93c0.94,-2.09 1.42,-3.57 1.42,-4.58 0,-0.54 -0.14,-1.01 -0.41,-1.35 -0.34,-0.34 -0.67,-0.54 -1.08,-0.54 -0.34,0 -0.67,0.14 -0.94,0.4 -0.94,0.94 -1.75,2.02 -2.43,3.24 -2.09,3.97 -3.37,6.4 -3.77,7.28 -0.4,0.88 -1.21,2.96 -2.36,6.26 -1.28,3.71 -1.95,6.27 -1.95,7.82 1.69,-1.62 3.23,-3.37 4.65,-5.32 1.42,-1.89 2.63,-4.04 3.77,-6.4l0.4 -0.88zm16.78 33.28m10.24 -8.96c-0.07,0.54 -0.14,0.94 -0.07,1.28 0,1.48 0.54,2.69 1.55,3.64 1.01,0.94 2.36,1.41 3.97,1.41 1.15,0 2.22,-0.27 3.24,-0.74 1.62,-0.74 2.9,-1.69 3.84,-2.76 0.67,-0.67 1.41,-1.35 2.16,-2.09 0.74,-0.74 1.28,-1.08 1.68,-1.08 0.27,0 0.67,0.07 1.15,0.27 -0.2,1.55 -0.81,2.9 -1.75,4.04 -1.01,1.14 -2.9,2.69 -5.79,4.58 -1.21,0.74 -2.43,1.28 -3.71,1.62 -1.28,0.34 -2.43,0.47 -3.57,0.47 -2.36,0 -4.24,-0.61 -5.79,-1.82 -1.55,-1.21 -2.49,-2.83 -2.83,-4.85 -0.07,-0.61 -0.14,-1.08 -0.14,-1.41 0,-0.61 0.07,-1.15 0.14,-1.48 0.07,-0.34 0.2,-0.94 0.54,-1.68l-1.35 1.41 -1.82 1.95c-0.67,0.2 -1.15,0 -1.48,-0.61 -0.14,-0.27 -0.2,-0.54 -0.2,-0.81 0,-0.4 0.27,-0.94 0.88,-1.69 0.61,-0.74 1.55,-1.75 2.96,-3.03l3.3 -3.17 0.81 -0.67c1.41,-1.28 2.63,-2.29 3.77,-3.17 0.74,-0.61 1.68,-1.28 2.83,-2.09 2.09,-1.35 3.84,-2.29 5.25,-2.83 1.42,-0.47 2.63,-0.74 3.57,-0.74 1.01,0.07 1.82,0.41 2.36,1.01 0.54,0.61 0.81,1.28 0.81,2.16 0,0.34 -0.07,0.67 -0.14,1.01 -0.07,0.34 -0.27,0.81 -0.47,1.35 -0.27,0.61 -0.67,1.28 -1.14,2.09 -1.01,1.62 -2.56,3.1 -4.78,4.51 -2.22,1.41 -4.92,2.56 -8.15,3.44l-1.35 0.4 -0.27 0.07zm12.33 -11.05c-0.61,-0.34 -1.21,-0.54 -1.75,-0.54 -0.61,0 -1.28,0.2 -1.89,0.61 -0.67,0.4 -1.62,1.14 -2.83,2.29l-2.9 2.56c-0.74,0.88 -1.48,1.96 -2.09,3.24 2.02,-0.47 3.91,-1.15 5.59,-2.09 1.69,-0.94 3.03,-1.89 3.91,-2.83 0.88,-0.88 1.48,-1.95 1.95,-3.23zm2.9 20.01m9.77 -19.2l-0.47 -0.4c-0.74,-0.88 -1.14,-1.48 -1.14,-1.82 0,-0.47 0.61,-1.08 1.89,-1.95l2.42 -1.55c0.61,-0.27 1.28,-0.41 1.89,-0.41 1.48,0 2.76,0.61 3.91,1.82 1.15,1.28 1.82,3.03 2.16,5.32 0.07,0.74 0.13,1.28 0.13,1.69 0,0.94 -0.07,2.02 -0.27,3.17 -0.2,1.21 -0.54,2.69 -1.01,4.45l-0.27 0.81 -1.28 4.31 -0.14 0.47 -0.4 1.68 1.95 -0.61c2.69,-1.08 4.72,-2.43 6,-3.98l2.63 -2.76c0.4,-0.4 0.88,-0.2 1.41,0.67 0.34,0.54 0.47,0.94 0.47,1.15 0,0.67 -1.28,2.22 -3.91,4.58 -1.21,1.08 -2.9,2.16 -5.05,3.23 -1.55,0.74 -2.83,1.35 -3.84,1.68 -1.01,0.34 -2.02,0.47 -2.96,0.47 -1.89,0 -2.83,-0.67 -2.83,-2.02 0,-0.4 0.07,-0.88 0.2,-1.41l0.61 -1.82 1.14 -3.03 0.27 -0.74 0.67 -1.69c0.67,-2.02 1.01,-3.64 1.01,-4.92 0,-1.01 -0.2,-1.89 -0.67,-2.49 -0.47,-0.61 -1.08,-1.01 -1.82,-1.21l-1.35 1.28 -1.95 1.89c-0.81,0.74 -1.62,1.55 -2.43,2.29 -0.4,0.41 -0.88,0.94 -1.41,1.55 -1.41,1.69 -2.29,2.7 -2.76,3.03 -0.47,0.4 -0.94,0.54 -1.41,0.47 -0.81,-0.2 -1.14,-0.61 -0.94,-1.21 0.14,-0.74 0.34,-1.28 0.67,-1.75l3.3 -3.23c0.47,-0.47 1.08,-1.14 1.82,-2.02 0.88,-1.08 1.82,-2.29 2.69,-3.57l1.08 -1.41zm17.65 19.2m10.24 -8.96c-0.07,0.54 -0.13,0.94 -0.07,1.28 0,1.48 0.54,2.69 1.55,3.64 1.01,0.94 2.36,1.41 3.97,1.41 1.15,0 2.22,-0.27 3.24,-0.74 1.62,-0.74 2.9,-1.69 3.84,-2.76 0.67,-0.67 1.41,-1.35 2.16,-2.09 0.74,-0.74 1.28,-1.08 1.68,-1.08 0.27,0 0.67,0.07 1.15,0.27 -0.2,1.55 -0.81,2.9 -1.75,4.04 -1.01,1.14 -2.9,2.69 -5.79,4.58 -1.21,0.74 -2.43,1.28 -3.71,1.62 -1.28,0.34 -2.43,0.47 -3.57,0.47 -2.36,0 -4.24,-0.61 -5.79,-1.82 -1.55,-1.21 -2.49,-2.83 -2.83,-4.85 -0.07,-0.61 -0.14,-1.08 -0.14,-1.41 0,-0.61 0.07,-1.15 0.14,-1.48 0.07,-0.34 0.2,-0.94 0.54,-1.68l-1.35 1.41 -1.82 1.95c-0.67,0.2 -1.15,0 -1.48,-0.61 -0.13,-0.27 -0.2,-0.54 -0.2,-0.81 0,-0.4 0.27,-0.94 0.88,-1.69 0.61,-0.74 1.55,-1.75 2.96,-3.03l3.3 -3.17 0.81 -0.67c1.42,-1.28 2.63,-2.29 3.77,-3.17 0.74,-0.61 1.68,-1.28 2.83,-2.09 2.09,-1.35 3.84,-2.29 5.26,-2.83 1.41,-0.47 2.63,-0.74 3.57,-0.74 1.01,0.07 1.82,0.41 2.36,1.01 0.54,0.61 0.81,1.28 0.81,2.16 0,0.34 -0.07,0.67 -0.14,1.01 -0.07,0.34 -0.27,0.81 -0.47,1.35 -0.27,0.61 -0.67,1.28 -1.15,2.09 -1.01,1.62 -2.56,3.1 -4.78,4.51 -2.22,1.41 -4.92,2.56 -8.15,3.44l-1.35 0.4 -0.27 0.07zm12.33 -11.05c-0.61,-0.34 -1.21,-0.54 -1.75,-0.54 -0.61,0 -1.28,0.2 -1.89,0.61 -0.67,0.4 -1.62,1.14 -2.83,2.29l-2.9 2.56c-0.74,0.88 -1.48,1.96 -2.09,3.24 2.02,-0.47 3.91,-1.15 5.59,-2.09 1.69,-0.94 3.03,-1.89 3.91,-2.83 0.88,-0.88 1.48,-1.95 1.95,-3.23z"/>
   <path class="fil2" d="M486.65 293.16m16.24 -40.29l0.81 -1.89c-1.15,-0.14 -2.29,0.07 -3.44,0.61 -1.14,0.61 -2.29,1.55 -3.44,2.96 -1.15,1.41 -1.75,2.9 -1.75,4.58 0,1.55 0.54,3.1 1.55,4.78 1.01,1.69 2.56,3.44 4.65,5.26 0.2,0.2 0.74,0.61 1.48,1.15 2.56,1.89 4.24,3.17 5.12,3.77 2.56,1.82 4.31,3.5 5.26,4.99 0.88,1.55 1.35,3.37 1.35,5.59l-0.14 1.28 0.61 -0.61 1.55 -1.48c0.2,-0.2 0.54,-0.13 0.88,0.27 0.34,0.4 0.47,1.01 0.34,1.89 -0.07,0.47 -0.34,0.94 -0.74,1.41 -0.61,0.67 -1.35,1.41 -2.29,2.16 -0.54,0.4 -1.08,0.94 -1.69,1.55 -0.61,0.67 -1.48,1.62 -2.56,2.9 -0.47,0.54 -1.35,1.21 -2.76,2.02 -1.41,0.74 -2.56,1.35 -3.57,1.82 -0.2,0.07 -0.67,0.27 -1.28,0.54 -0.67,0.2 -1.42,0.47 -2.16,0.67 -1.95,0.54 -3.71,0.94 -5.12,1.28 -1.48,0.34 -2.63,0.47 -3.5,0.47 -0.88,0 -1.62,-0.14 -2.22,-0.4 -0.61,-0.34 -1.28,-0.81 -2.02,-1.55 -0.74,-0.74 -1.14,-1.48 -1.14,-2.22 0,-0.47 0.2,-0.88 0.54,-1.15l2.69 -1.62 3.57 -1.68 0.2 -0.14 4.24 -1.48 1.82 -0.54 2.49 -0.74 3.57 -1.01 0.74 -0.2 1.01 -0.34c0.81,-0.34 1.21,-0.94 1.21,-1.82 0,-0.74 -0.27,-1.48 -0.88,-2.09l-2.22 -2.16 -6.06 -3.91c-1.08,-0.67 -2.16,-1.41 -3.23,-2.29 -0.88,-0.67 -1.95,-1.55 -3.17,-2.69 -3.03,-2.76 -4.51,-6.06 -4.51,-10.04 0,-3.03 0.94,-6 2.83,-8.76 2.09,-3.03 4.99,-5.59 8.83,-7.61l2.63 -1.15 5.99 -1.68c0.88,-0.2 1.69,-0.4 2.49,-0.61 0.74,-0.13 1.48,-0.2 2.22,-0.2 0.67,-0.07 1.28,0.2 1.75,0.67 0.47,0.54 0.67,1.21 0.67,2.02 0,1.21 -0.61,2.29 -1.75,3.23 -1.14,0.94 -3.3,1.95 -6.4,3.1 -1.48,0.54 -3.17,0.88 -5.05,1.08zm12.46 40.29m7.34 16.57l2.29 -8.96c1.48,-5.52 2.7,-9.63 3.64,-12.4 1.95,-6 3.5,-10.24 4.72,-12.8 1.01,-2.16 2.09,-3.77 3.23,-4.85 1.89,-1.62 3.91,-2.43 6.13,-2.43 1.01,0 1.95,0.14 2.96,0.34 0.94,0.27 1.89,0.74 2.9,1.41 2.9,1.95 4.38,4.45 4.38,7.48 0,2.56 -1.01,5.39 -3.1,8.42l-1.42 1.82 -0.27 0.13 -3.17 2.7 -0.2 0.2 -1.35 1.14c1.21,0 2.22,-0.2 3.1,-0.54 0.88,-0.34 2.09,-1.08 3.77,-2.22 1.69,-1.15 2.9,-2.16 3.71,-3.03 1.48,-1.55 2.49,-2.29 2.96,-2.29 0.27,0 0.61,0.07 1.01,0.2 -0.14,1.55 -0.67,2.83 -1.62,3.91 -0.94,1.14 -2.76,2.49 -5.53,4.18 -1.68,1.01 -3.64,1.82 -5.86,2.43 -2.22,0.61 -4.72,0.88 -7.34,0.88 -1.14,0 -2.42,-0.07 -3.71,-0.2l-3.57 -0.61 -0.14 0.81 -0.13 0.4 -0.14 0.54 -0.81 2.76 -1.21 4.65 -0.74 2.29 -0.88 2.9c-1.01,3.23 -1.75,5.19 -2.22,5.93 -0.47,0.74 -1.28,1.08 -2.42,1.08 -1.35,0 -2.22,-0.47 -2.69,-1.41 -0.47,-1.01 -0.74,-2.96 -0.74,-5.93l0 -5.73 0 -0.27 0.54 -6.2 0.14 -1.28 0.61 -4.99 0.61 -6.2 -0.94 1.01 -2.02 2.09c-0.14,0.14 -0.34,0.2 -0.54,0.2 -0.61,-0.2 -1.01,-0.4 -1.14,-0.61 -0.14,-0.2 -0.14,-0.54 -0.07,-1.01 0.07,-0.47 0.34,-1.01 0.74,-1.62 0.07,-0.2 0.47,-0.61 1.08,-1.21 1.35,-1.41 2.16,-2.22 2.49,-2.56 0.74,-0.74 1.48,-2.02 2.36,-3.77 0.88,-1.75 1.62,-3.44 2.22,-5.12 0.2,-0.61 0.67,-1.82 1.35,-3.64 0.41,-1.14 0.67,-1.89 0.74,-2.22 0.27,-1.14 0.54,-2.29 0.87,-3.3 0.34,-1.01 0.67,-2.09 1.08,-3.17 0.27,-0.74 0.81,-1.15 1.62,-1.15 0.47,0 0.94,0.2 1.48,0.54 0.47,0.41 0.88,0.74 1.08,1.08 0.2,0.34 0.27,0.81 0.27,1.41 0,1.15 -1.15,5.05 -3.5,11.59 -0.67,1.82 -1.35,4.24 -2.02,7.14 -0.67,2.96 -1.21,5.59 -1.68,7.95 -0.88,4.85 -1.69,10.64 -2.43,17.38l-0.47 4.72zm21.96 -30.99c-0.2,-0.81 -0.47,-1.48 -0.74,-2.02 -0.27,-0.47 -0.67,-1.01 -1.14,-1.55 -0.54,-0.54 -1.15,-0.81 -1.89,-0.81 -1.08,0 -2.02,0.61 -2.83,1.82 -0.61,1.01 -1.21,2.02 -1.75,3.1 -0.54,1.08 -1.01,2.22 -1.48,3.37 -0.81,2.09 -1.35,3.77 -1.62,5.05 -0.34,1.28 -0.47,2.43 -0.47,3.57 0.27,0.07 0.67,0.07 1.14,0.07 0.94,0 1.95,-0.27 2.96,-0.74 1.01,-0.47 2.29,-1.21 3.71,-2.36 1.41,-1.14 2.56,-2.36 3.3,-3.71 0.74,-1.28 1.08,-2.63 1.08,-3.91 0,-0.74 -0.07,-1.35 -0.27,-1.89zm10.78 14.42m10.24 -8.96c-0.07,0.54 -0.14,0.94 -0.07,1.28 0,1.48 0.54,2.69 1.55,3.64 1.01,0.94 2.36,1.41 3.97,1.41 1.15,0 2.22,-0.27 3.24,-0.74 1.62,-0.74 2.9,-1.69 3.84,-2.76 0.67,-0.67 1.41,-1.35 2.16,-2.09 0.74,-0.74 1.28,-1.08 1.68,-1.08 0.27,0 0.67,0.07 1.15,0.27 -0.2,1.55 -0.81,2.9 -1.75,4.04 -1.01,1.14 -2.9,2.69 -5.79,4.58 -1.21,0.74 -2.43,1.28 -3.71,1.62 -1.28,0.34 -2.43,0.47 -3.57,0.47 -2.36,0 -4.24,-0.61 -5.79,-1.82 -1.55,-1.21 -2.49,-2.83 -2.83,-4.85 -0.07,-0.61 -0.14,-1.08 -0.14,-1.41 0,-0.61 0.07,-1.15 0.14,-1.48 0.07,-0.34 0.2,-0.94 0.54,-1.68l-1.35 1.41 -1.82 1.95c-0.67,0.2 -1.15,0 -1.48,-0.61 -0.14,-0.27 -0.2,-0.54 -0.2,-0.81 0,-0.4 0.27,-0.94 0.88,-1.69 0.61,-0.74 1.55,-1.75 2.96,-3.03l3.3 -3.17 0.81 -0.67c1.41,-1.28 2.63,-2.29 3.77,-3.17 0.74,-0.61 1.68,-1.28 2.83,-2.09 2.09,-1.35 3.84,-2.29 5.25,-2.83 1.42,-0.47 2.63,-0.74 3.57,-0.74 1.01,0.07 1.82,0.41 2.36,1.01 0.54,0.61 0.81,1.28 0.81,2.16 0,0.34 -0.07,0.67 -0.14,1.01 -0.07,0.34 -0.27,0.81 -0.47,1.35 -0.27,0.61 -0.67,1.28 -1.14,2.09 -1.01,1.62 -2.56,3.1 -4.78,4.51 -2.22,1.41 -4.92,2.56 -8.15,3.44l-1.35 0.4 -0.27 0.07zm12.33 -11.05c-0.61,-0.34 -1.21,-0.54 -1.75,-0.54 -0.61,0 -1.28,0.2 -1.89,0.61 -0.67,0.4 -1.62,1.14 -2.83,2.29l-2.9 2.56c-0.74,0.88 -1.48,1.96 -2.09,3.24 2.02,-0.47 3.91,-1.15 5.59,-2.09 1.69,-0.94 3.03,-1.89 3.91,-2.83 0.88,-0.88 1.48,-1.95 1.95,-3.23zm2.96 20.01m22.17 -7.88l-1.62 1.89c-1.75,2.02 -3.17,3.5 -4.24,4.38 -1.15,0.88 -2.36,1.62 -3.71,2.22 -2.22,0.87 -3.98,1.35 -5.26,1.35 -1.82,0 -3.3,-0.47 -4.31,-1.35 -1.01,-0.88 -1.48,-2.02 -1.28,-3.3 0.14,-0.88 0.4,-1.82 0.74,-2.83l0.74 -2.02 -1.35 1.21c-0.27,0.27 -0.61,0.34 -1.01,0.27 -0.4,-0.07 -0.67,-0.34 -0.74,-0.74 -0.14,-0.47 -0.14,-0.88 0.07,-1.35 0.2,-0.47 0.61,-1.01 1.21,-1.62l2.09 -2.16 0.94 -0.87 3.1 -2.9 1.01 -0.94c1.08,-0.94 2.29,-1.89 3.57,-2.83 1.28,-0.94 2.49,-1.75 3.64,-2.43 2.36,-1.35 4.38,-2.36 6.06,-2.96 1.69,-0.61 3.1,-0.88 4.31,-0.88 1.41,0 2.43,0.47 3.03,1.35 0.13,0.2 0.2,0.4 0.13,0.67 -0.07,0.27 -0.13,0.47 -0.34,0.54 -0.34,0.2 -0.67,0.34 -1.01,0.54 -0.41,0.2 -0.94,0.34 -1.62,0.47 -0.74,0.14 -1.82,0.54 -3.3,1.21 -1.55,0.74 -3.37,1.75 -5.46,3.17 -1.41,1.01 -2.56,1.89 -3.5,2.63 -1.01,0.81 -1.75,1.55 -2.36,2.22 -2.02,2.22 -3.3,4.24 -3.84,5.93 -0.07,0.2 -0.14,0.54 -0.14,0.94 0,1.21 0.61,1.89 1.82,2.02 0.74,0 1.55,-0.2 2.29,-0.54 0.74,-0.34 1.82,-1.08 3.24,-2.16 0.47,-0.47 0.81,-0.74 1.01,-0.88 0.61,-0.61 1.35,-1.28 2.09,-2.09l1.48 -1.75c2.63,-3.37 4.24,-5.46 4.99,-6.2 0.88,-0.94 1.75,-1.41 2.56,-1.41 0.34,0.07 0.61,0.07 0.81,0.07 1.62,0.2 2.43,1.15 2.43,2.76 0,0.34 0,0.54 -0.07,0.74 -0.27,1.55 -0.74,3.03 -1.42,4.31l-0.61 1.95c-0.27,1.62 -0.4,2.76 -0.4,3.37 0,0.67 0.13,1.28 0.47,1.89 0.27,0.61 0.74,0.74 1.48,0.47 0.47,-0.27 0.94,-0.54 1.41,-0.88 0.47,-0.34 1.21,-0.94 2.22,-1.95l0.81 -0.74c1.01,-1.15 1.69,-1.89 2.02,-2.22 0.34,-0.27 0.74,-0.34 1.15,-0.27 0.34,0.07 0.61,0.2 0.81,0.47 0.2,0.27 0.2,0.61 0.14,0.94 -0.2,0.74 -0.61,1.41 -1.14,2.09 -0.81,0.88 -1.55,1.62 -2.22,2.36 -1.14,1.15 -2.76,2.36 -4.85,3.5 -0.54,0.34 -1.08,0.54 -1.55,0.67 -0.54,0.14 -1.08,0.2 -1.55,0.2 -2.29,0 -3.77,-1.08 -4.45,-3.17 -0.07,-0.34 -0.14,-0.81 -0.2,-1.28 -0.07,-0.47 -0.07,-1.35 -0.07,-2.69l0.14 -1.82 -0.4 0.4zm14.22 7.88m9.3 -1.48c0.81,-0.81 1.35,-1.48 1.69,-2.09l1.68 -3.5c0.41,-0.88 0.74,-1.62 1.01,-2.22 0.27,-0.61 0.41,-1.01 0.47,-1.35l0 -2.36 0.14 -1.95c0.2,-0.88 0.54,-1.55 1.08,-2.02 0.54,-0.47 1.14,-0.74 1.89,-0.74 0.4,0 0.81,0.13 1.28,0.34l1.08 -1.62c0.81,-1.21 1.48,-2.36 2.09,-3.44 0.61,-1.08 1.01,-1.89 1.21,-2.49l1.42 -3.98c0.47,-0.47 0.94,-0.67 1.41,-0.67 0.61,0 1.15,0.2 1.55,0.67 0.41,0.47 0.61,1.15 0.61,2.16 0,0.81 -0.14,1.68 -0.4,2.56 -0.27,0.88 -0.81,2.02 -1.55,3.3l-2.29 3.97 -0.07 0.2 -0.47 0.61 -0.61 0.81c1.15,1.01 2.16,2.09 2.96,3.1 0.81,1.08 1.89,2.69 3.23,4.92 0.34,0.61 0.81,1.14 1.28,1.62 0.34,0.27 0.74,0.4 1.14,0.4 0.94,0 1.75,-0.54 2.43,-1.68 0.47,-0.74 1.08,-1.48 1.68,-2.09 0.2,-0.2 0.47,-0.34 0.81,-0.34 0.2,0 0.4,0.07 0.67,0.27 0.47,0.47 0.74,1.01 0.67,1.75 0,0.47 -0.14,0.88 -0.47,1.28 -0.34,0.47 -1.15,1.21 -2.29,2.22l-3.03 2.63 -0.27 0.2 -1.62 0.94c-1.08,0.34 -1.95,0.54 -2.69,0.54 -1.82,0 -3.84,-1.62 -5.93,-4.78 -0.34,-0.47 -0.74,-1.01 -1.21,-1.48 -0.61,-0.61 -1.35,-1.35 -2.22,-2.09l-1.21 1.89 -0.34 0.54 -2.63 3.98c-1.55,2.36 -3.17,3.91 -4.78,4.78 -0.47,0.27 -1.01,0.4 -1.55,0.4 -1.55,0 -2.36,-0.61 -2.56,-1.82 -0.2,-1.28 -0.34,-2.22 -0.34,-2.9 0,-0.61 0.07,-1.35 0.2,-2.36 0.14,-0.94 0.34,-2.22 0.61,-3.77l0.2 -1.21 0.2 -0.94 0.27 -1.08 -1.48 1.41 -0.34 0.4c-0.74,0.88 -1.21,1.42 -1.48,1.62 -0.54,0.47 -1.01,0.67 -1.41,0.61 -0.34,-0.07 -0.54,-0.2 -0.74,-0.47 -0.2,-0.27 -0.27,-0.54 -0.2,-0.81 0.2,-0.88 0.61,-1.62 1.21,-2.22 0.14,-0.13 1.01,-1.01 2.63,-2.69l1.14 -1.35c1.15,-1.55 1.95,-3.03 2.36,-4.38 0.4,-1.35 0.81,-3.71 1.21,-7.14l0.2 -1.55 0.67 -4.38 0.47 -3.5 0.41 -2.42 1.08 -6 1.21 -6.06c0.47,-0.34 0.94,-0.47 1.42,-0.47 1.01,0 1.95,0.54 2.76,1.55 0.34,0.47 0.67,1.15 0.88,1.89 0.2,0.81 0.27,1.82 0.27,3.03 0,1.28 -0.2,3.24 -0.54,5.73l-0.47 2.43c-0.47,2.16 -0.88,3.91 -1.35,5.19l-0.14 0.4 -1.21 3.44 -0.34 1.01 -0.27 0.74c-0.74,2.22 -1.62,5.46 -2.69,9.7l-0.61 2.43 -0.14 0.54 -1.01 5.12c-0.34,1.62 -0.47,2.76 -0.47,3.37 0,0.54 0.2,1.14 0.54,1.75zm25.87 1.48m12.46 -25.33l0.94 0c1.95,0 3.24,0.61 3.84,1.75 0.54,1.15 0.81,3.77 0.81,7.82 0,2.29 -0.67,5.46 -2.09,9.43l-0.34 0.94 -0.14 0.34c1.08,-0.81 1.75,-1.41 2.02,-1.75l2.42 -2.43c0.47,-0.2 1.15,-0.14 1.89,0.2 0,1.14 -0.34,2.09 -0.94,2.83 -0.34,0.47 -1.01,1.08 -1.95,1.95l-2.49 2.36c-0.13,0.07 -0.61,0.41 -1.41,0.94 -0.47,0.27 -0.67,0.4 -0.74,0.47 -0.07,0.07 -0.07,0.2 -0.14,0.27 -0.34,0.54 -0.54,1.01 -0.74,1.35 -0.47,0.88 -1.35,1.35 -2.63,1.35 -0.54,0 -1.08,-0.14 -1.62,-0.4 -1.14,-0.61 -1.89,-1.48 -2.29,-2.76 -0.47,-1.28 -0.67,-2.16 -0.67,-2.63 0,-0.47 0.2,-0.81 0.61,-0.94 0.34,-0.14 1.01,-0.2 1.95,-0.2 0.4,0 1.08,-0.27 2.02,-0.74l0.34 -1.35c0.67,-2.63 1.01,-4.78 1.01,-6.33 0,-1.01 -0.14,-2.02 -0.4,-2.96l-1.75 1.35c-1.41,1.15 -2.7,2.29 -3.84,3.37 -0.88,0.88 -1.55,1.55 -1.89,2.02 -0.67,0.94 -1.41,1.82 -2.29,2.69 -0.47,0.54 -0.94,0.34 -1.55,-0.54 -0.27,-0.54 -0.4,-0.88 -0.4,-1.08 0,-0.41 0.2,-0.88 0.67,-1.41 0.4,-0.47 1.21,-1.35 2.49,-2.56 0.4,-0.4 0.81,-0.81 1.21,-1.28 0.34,-0.4 0.94,-1.15 1.82,-2.22l1.35 -1.68 1.55 -1.95c0.94,-1.28 1.68,-2.36 2.16,-3.24 0.47,-0.88 0.88,-1.82 1.21,-2.96zm10.71 25.33m0 -2.02c0,-0.47 0.07,-0.81 0.13,-1.01 0.27,-0.74 1.01,-1.89 2.29,-3.3 0.88,-1.01 1.82,-1.89 2.7,-2.56 0.34,-0.27 0.74,-0.41 1.21,-0.41 1.35,0 2.36,0.81 2.96,2.43 0.14,0.47 0.2,0.81 0.27,1.01 0.07,0.2 0.07,0.61 0.07,1.08 0,0.34 0,0.54 -0.07,0.67 0,1.28 -0.4,2.36 -1.15,3.3 -0.81,0.94 -1.82,1.62 -3.1,2.02 -0.47,0.14 -0.94,0.2 -1.41,0.2 -1.08,0 -2.02,-0.34 -2.76,-0.94 -0.74,-0.61 -1.14,-1.48 -1.14,-2.49zm40.69 2.02m13.74 -8.56c2.49,-2.36 4.58,-5.32 6.13,-8.76 1.55,-3.44 2.96,-8.49 4.31,-15.16l0.47 -2.76c0.47,-4.11 1.08,-6.74 1.69,-7.95 0.61,-1.14 1.68,-1.75 3.37,-1.75 0.74,0 1.48,0.14 2.09,0.47 0.61,0.34 0.88,0.74 0.81,1.14l-1.62 11.59c-0.07,0.74 -0.13,1.28 -0.2,1.75 -0.07,0.47 -0.07,1.14 -0.07,2.16 0,2.36 0.27,5.59 0.81,9.57 0.34,2.49 1.08,4.92 2.09,7.41l2.02 -3.71c2.63,-5.12 4.65,-9.91 6,-14.42 1.68,-5.59 2.49,-9.36 2.49,-11.39l0.47 -6.33c0,-0.88 0.74,-1.48 2.16,-1.75 0.14,-0.07 0.27,-0.07 0.4,-0.07 0.2,0 0.27,0 0.34,0 1.21,0 1.82,1.01 1.82,3.1 0,2.36 -0.74,7.55 -2.29,15.56 -0.2,1.14 -0.4,2.02 -0.61,2.69 -0.2,0.74 -0.54,2.09 -1.15,4.11 -0.61,2.02 -0.94,3.1 -1.01,3.3 -0.27,0.81 -0.81,2.29 -1.62,4.45 -2.36,5.79 -4.04,9.57 -5.05,11.32 -1.01,1.75 -1.95,2.76 -2.76,2.96 -0.81,0.2 -1.48,0.41 -2.09,0.54 -0.61,0.13 -1.08,0.2 -1.41,0.2 -0.88,0 -1.55,-0.47 -2.09,-1.48 -0.34,-0.61 -0.74,-1.55 -1.21,-2.76l-1.55 -3.97 -0.14 -0.34 -1.08 -3.97 -0.81 -2.96 -0.07 -0.2 -0.27 -0.88 -0.27 0.54 -0.2 0.4 -0.27 0.67 -0.88 1.95c-0.34,0.88 -1.01,2.16 -1.89,3.84l-0.13 0.27 -2.49 4.24c-1.21,2.09 -2.09,3.44 -2.63,4.04 -0.61,0.67 -1.28,1.08 -2.02,1.28 -0.2,0.07 -0.67,0.13 -1.41,0.34 -0.81,0.2 -1.35,0.27 -1.62,0.27 -1.15,0 -1.95,-1.15 -2.56,-3.5 -0.2,-0.81 -0.67,-3.17 -1.48,-7.14 -0.2,-1.28 -0.4,-2.22 -0.47,-2.83 -0.07,-0.61 -0.27,-2.09 -0.61,-4.51l-0.34 -2.49 -0.4 -3.1 -0.41 -2.9 -0.47 -3.44 -0.34 -0.2 -0.4 -0.27c-1.15,-0.87 -1.89,-1.95 -2.22,-3.37 -0.4,-1.35 -0.61,-3.71 -0.61,-7.07 0,-2.22 0.2,-3.97 0.54,-5.32 0.34,-1.28 0.81,-2.36 1.55,-3.17 0.74,-0.74 1.62,-1.14 2.76,-1.14 1.62,0 2.96,0.74 3.97,2.16 0.67,0.94 1.15,1.62 1.35,2.09 0.2,0.47 0.27,1.14 0.27,2.02 0,1.28 -0.07,2.63 -0.2,4.04 -0.2,1.41 -0.34,2.49 -0.41,3.23 -0.07,0.81 -0.13,1.35 -0.13,1.69 0,0.34 0,0.61 0,0.81 0,1.35 0.07,2.83 0.27,4.51 0.2,1.69 0.54,4.45 1.14,8.36 0.27,1.75 0.54,3.37 0.81,4.85 0.27,1.48 0.61,3.1 1.08,4.78l0.34 1.01 0.4 1.35zm31.19 8.56m10.24 -8.96c-0.07,0.54 -0.13,0.94 -0.07,1.28 0,1.48 0.54,2.69 1.55,3.64 1.01,0.94 2.36,1.41 3.97,1.41 1.15,0 2.22,-0.27 3.24,-0.74 1.62,-0.74 2.9,-1.69 3.84,-2.76 0.67,-0.67 1.41,-1.35 2.16,-2.09 0.74,-0.74 1.28,-1.08 1.68,-1.08 0.27,0 0.67,0.07 1.15,0.27 -0.2,1.55 -0.81,2.9 -1.75,4.04 -1.01,1.14 -2.9,2.69 -5.79,4.58 -1.21,0.74 -2.43,1.28 -3.71,1.62 -1.28,0.34 -2.43,0.47 -3.57,0.47 -2.36,0 -4.24,-0.61 -5.79,-1.82 -1.55,-1.21 -2.49,-2.83 -2.83,-4.85 -0.07,-0.61 -0.14,-1.08 -0.14,-1.41 0,-0.61 0.07,-1.15 0.14,-1.48 0.07,-0.34 0.2,-0.94 0.54,-1.68l-1.35 1.41 -1.82 1.95c-0.67,0.2 -1.15,0 -1.48,-0.61 -0.13,-0.27 -0.2,-0.54 -0.2,-0.81 0,-0.4 0.27,-0.94 0.88,-1.69 0.61,-0.74 1.55,-1.75 2.96,-3.03l3.3 -3.17 0.81 -0.67c1.42,-1.28 2.63,-2.29 3.77,-3.17 0.74,-0.61 1.68,-1.28 2.83,-2.09 2.09,-1.35 3.84,-2.29 5.26,-2.83 1.41,-0.47 2.63,-0.74 3.57,-0.74 1.01,0.07 1.82,0.41 2.36,1.01 0.54,0.61 0.81,1.28 0.81,2.16 0,0.34 -0.07,0.67 -0.14,1.01 -0.07,0.34 -0.27,0.81 -0.47,1.35 -0.27,0.61 -0.67,1.28 -1.15,2.09 -1.01,1.62 -2.56,3.1 -4.78,4.51 -2.22,1.41 -4.92,2.56 -8.15,3.44l-1.35 0.4 -0.27 0.07zm12.33 -11.05c-0.61,-0.34 -1.21,-0.54 -1.75,-0.54 -0.61,0 -1.28,0.2 -1.89,0.61 -0.67,0.4 -1.62,1.14 -2.83,2.29l-2.9 2.56c-0.74,0.88 -1.48,1.96 -2.09,3.24 2.02,-0.47 3.91,-1.15 5.59,-2.09 1.69,-0.94 3.03,-1.89 3.91,-2.83 0.88,-0.88 1.48,-1.95 1.95,-3.23zm29.38 20.01m3.97 -27.08c-0.74,-0.74 -1.08,-1.35 -1.08,-1.96 0,-0.4 0.07,-0.94 0.27,-1.68 0.14,-0.74 0.27,-1.41 0.4,-2.02l0.74 -3.3 0.27 -0.94c0.61,-2.22 1.15,-3.91 1.62,-5.05 1.08,-2.56 1.89,-4.24 2.43,-5.05 0.54,-0.74 1.21,-1.28 2.09,-1.55 0.88,-0.27 1.62,-0.4 2.22,-0.4 1.89,0 2.83,0.74 2.83,2.22 0,1.82 -0.27,3.64 -0.74,5.52l-2.22 9.36 -3.1 10.11c-1.28,4.11 -2.16,7.14 -2.49,8.96 -0.41,1.89 -0.61,4.04 -0.61,6.47 0.41,0.4 0.81,0.67 1.21,0.81 0.41,0.2 1.01,0.27 1.82,0.27 1.21,0 3.03,-0.14 5.39,-0.47 2.36,-0.27 4.11,-0.67 5.32,-1.14l4.99 -1.82c0.34,-0.07 0.61,0.07 0.81,0.47 0.2,0.4 0.34,1.08 0.34,1.95 0,1.41 -0.34,2.43 -1.01,2.96 -0.74,0.61 -2.42,1.28 -5.12,2.02l-5.05 1.42 -4.99 0.94 -0.87 0.07 -3.84 0.34c-0.88,0.07 -1.75,0.14 -2.63,0.2 -1.15,0 -1.89,-0.2 -2.29,-0.67 -0.47,-0.47 -0.67,-1.41 -0.67,-2.7 0,-1.41 0.14,-3.17 0.4,-5.26 0.34,-2.09 0.61,-3.77 0.81,-5.19 0.14,-1.35 0.4,-2.9 0.74,-4.58 0.34,-1.69 0.54,-3.03 0.74,-4.11l0.67 -3.44 0.61 -2.76zm20.15 27.08m9.9 -13.88l-1.35 1.21 -3.1 2.9c-0.74,0.81 -1.41,1.55 -2.02,2.22 -0.67,0.74 -1.14,1.15 -1.41,1.28 -0.34,0.13 -0.54,0.2 -0.67,0.2 -0.47,0 -0.81,-0.14 -1.01,-0.47 -0.2,-0.27 -0.34,-0.61 -0.34,-0.94 0,-0.54 0.27,-1.08 0.74,-1.55l2.09 -2.02 0.47 -0.47 2.16 -2.16 4.31 -4.45 0.94 -1.01c1.55,-1.55 2.7,-2.36 3.5,-2.36 0.41,0 1.15,0.2 2.29,0.54 1.15,0.41 1.82,0.81 2.09,1.28 0.2,0.47 0.34,2.02 0.34,4.51 0.07,0.88 0.2,1.62 0.27,2.16 0.07,0.54 0.27,1.28 0.47,2.22l0.54 1.82c1.15,3.77 2.83,5.66 4.92,5.66 1.01,0 2.02,-0.41 3.17,-1.28 0.88,-0.67 1.48,-1.21 1.89,-1.55 0.4,-0.34 0.81,-0.74 1.14,-1.08 0.81,-0.94 1.42,-1.55 1.75,-1.82 0.34,-0.27 0.74,-0.34 1.08,-0.27 0.81,0.2 1.15,0.67 0.94,1.48 -0.07,0.47 -0.27,0.88 -0.61,1.35 -0.34,0.47 -1.08,1.21 -2.09,2.36l-2.36 2.02c-1.89,1.55 -3.71,2.7 -5.39,3.37 -2.36,1.01 -4.25,1.48 -5.53,1.48 -1.55,0 -2.83,-0.67 -3.84,-2.02 -1.08,-1.41 -2.22,-3.84 -3.44,-7.28 -0.47,-1.21 -0.81,-2.36 -1.08,-3.44 -0.34,-1.08 -0.61,-2.36 -0.88,-3.91zm3.1 -23.04c-0.07,-0.61 0,-1.21 0.27,-1.96 0.2,-0.67 0.74,-1.55 1.55,-2.56 0.74,-1.01 1.62,-1.82 2.63,-2.43 0.47,-0.34 1.08,-0.47 1.68,-0.47 1.48,0 2.49,0.81 3.1,2.42 0.27,0.67 0.4,1.42 0.4,2.22 0,1.14 -0.27,2.16 -0.88,3.17 -0.81,1.28 -1.95,2.22 -3.44,2.69 -0.47,0.14 -0.94,0.2 -1.41,0.2 -2.22,0 -3.57,-1.08 -3.91,-3.3zm19.94 36.92m12.46 -25.33l0.94 0c1.95,0 3.23,0.61 3.84,1.75 0.54,1.15 0.81,3.77 0.81,7.82 0,2.29 -0.67,5.46 -2.09,9.43l-0.34 0.94 -0.14 0.34c1.08,-0.81 1.75,-1.41 2.02,-1.75l2.43 -2.43c0.47,-0.2 1.14,-0.14 1.89,0.2 0,1.14 -0.34,2.09 -0.94,2.83 -0.34,0.47 -1.01,1.08 -1.95,1.95l-2.49 2.36c-0.14,0.07 -0.61,0.41 -1.41,0.94 -0.47,0.27 -0.67,0.4 -0.74,0.47 -0.07,0.07 -0.07,0.2 -0.14,0.27 -0.34,0.54 -0.54,1.01 -0.74,1.35 -0.47,0.88 -1.35,1.35 -2.63,1.35 -0.54,0 -1.08,-0.14 -1.62,-0.4 -1.15,-0.61 -1.89,-1.48 -2.29,-2.76 -0.47,-1.28 -0.67,-2.16 -0.67,-2.63 0,-0.47 0.2,-0.81 0.61,-0.94 0.34,-0.14 1.01,-0.2 1.96,-0.2 0.4,0 1.08,-0.27 2.02,-0.74l0.34 -1.35c0.67,-2.63 1.01,-4.78 1.01,-6.33 0,-1.01 -0.14,-2.02 -0.41,-2.96l-1.75 1.35c-1.41,1.15 -2.69,2.29 -3.84,3.37 -0.88,0.88 -1.55,1.55 -1.89,2.02 -0.67,0.94 -1.41,1.82 -2.29,2.69 -0.47,0.54 -0.94,0.34 -1.55,-0.54 -0.27,-0.54 -0.4,-0.88 -0.4,-1.08 0,-0.41 0.2,-0.88 0.67,-1.41 0.41,-0.47 1.21,-1.35 2.49,-2.56 0.4,-0.4 0.81,-0.81 1.21,-1.28 0.34,-0.4 0.94,-1.15 1.82,-2.22l1.35 -1.68 1.55 -1.95c0.94,-1.28 1.68,-2.36 2.16,-3.24 0.47,-0.88 0.88,-1.82 1.21,-2.96zm6.74 25.33m13.95 -31.67c-0.61,0 -1.21,0 -1.82,0 -0.61,0.07 -1.14,0.07 -1.75,0.07l-1.35 0 -3.1 -0.14c-2.36,0 -3.91,-0.14 -4.58,-0.47 -0.67,-0.34 -1.01,-1.01 -1.01,-2.16 0,-1.01 0.34,-1.62 1.01,-1.89 0.67,-0.2 2.22,-0.34 4.72,-0.34l5.05 0 4.04 0 0.13 -0.34 0.41 -0.94c0.2,-0.47 0.47,-1.08 0.67,-1.75 0.2,-0.67 0.34,-1.14 0.4,-1.35 0.47,-1.95 0.81,-3.17 1.14,-3.64 0.27,-0.47 0.81,-0.67 1.62,-0.67 1.08,0 1.55,0.41 1.48,1.15l-0.67 3.1 -0.4 3.1 -0.14 1.08 -0.07 0.27 1.28 0.13c1.01,0.2 1.68,0.34 1.95,0.54 0.2,0.2 0.4,0.67 0.54,1.41 0.14,0.74 0.2,1.21 0.2,1.42 0,1.28 -0.94,1.95 -2.83,1.95 -0.61,0 -1.14,0 -1.48,-0.07l-0.61 -0.14c-1.08,4.25 -1.95,8.96 -2.63,14.15l-0.13 1.14 -0.81 6.2c-0.07,0.94 -0.14,1.82 -0.2,2.56 -0.07,0.81 -0.14,1.55 -0.14,2.16 0,0.94 0.07,1.89 0.27,2.76l1.48 -0.67c1.82,-1.01 3.37,-2.29 4.51,-3.77 1.14,-1.42 1.95,-2.16 2.36,-2.16 0.27,0 0.61,0.27 0.94,0.81 0.34,0.61 0.54,1.01 0.54,1.21 0,0.4 -0.67,1.21 -2.09,2.49l-1.89 1.82 -0.74 0.67 -1.08 0.94c-1.41,1.21 -2.63,2.09 -3.5,2.7 -0.94,0.61 -1.82,1.01 -2.56,1.28 -0.74,0.27 -1.55,0.4 -2.36,0.4 -2.22,0 -3.37,-1.28 -3.37,-3.91 0,-0.88 0.07,-1.68 0.14,-2.56 0.07,-0.88 0.2,-2.16 0.4,-3.98l0.14 -1.15 0.2 -1.14 0.74 -3.17 0.81 -3.64c-0.88,1.41 -1.41,2.22 -1.48,2.36 -0.47,0.74 -0.94,1.35 -1.35,1.82 -2.22,2.76 -3.37,4.24 -3.57,4.45 -1.01,1.15 -1.82,1.62 -2.43,1.41 -0.74,-0.2 -1.01,-0.61 -0.81,-1.21 0.2,-0.94 0.61,-1.75 1.21,-2.42 0.07,-0.07 0.94,-1.08 2.76,-3.03 0.27,-0.34 0.67,-0.88 1.21,-1.69 0.74,-1.15 1.62,-2.63 2.76,-4.51 1.14,-1.89 2.02,-3.57 2.63,-4.99l0.2 -0.34 0.74 -1.75 1.01 -2.49 0.4 -0.94 0.34 -0.94 0.47 -1.21zm9.16 31.67m10.24 -8.96c-0.07,0.54 -0.14,0.94 -0.07,1.28 0,1.48 0.54,2.69 1.55,3.64 1.01,0.94 2.36,1.41 3.98,1.41 1.14,0 2.22,-0.27 3.23,-0.74 1.62,-0.74 2.9,-1.69 3.84,-2.76 0.67,-0.67 1.41,-1.35 2.16,-2.09 0.74,-0.74 1.28,-1.08 1.69,-1.08 0.27,0 0.67,0.07 1.14,0.27 -0.2,1.55 -0.81,2.9 -1.75,4.04 -1.01,1.14 -2.9,2.69 -5.79,4.58 -1.21,0.74 -2.42,1.28 -3.71,1.62 -1.28,0.34 -2.42,0.47 -3.57,0.47 -2.36,0 -4.24,-0.61 -5.79,-1.82 -1.55,-1.21 -2.49,-2.83 -2.83,-4.85 -0.07,-0.61 -0.14,-1.08 -0.14,-1.41 0,-0.61 0.07,-1.15 0.14,-1.48 0.07,-0.34 0.2,-0.94 0.54,-1.68l-1.35 1.41 -1.82 1.95c-0.67,0.2 -1.14,0 -1.48,-0.61 -0.14,-0.27 -0.2,-0.54 -0.2,-0.81 0,-0.4 0.27,-0.94 0.88,-1.69 0.61,-0.74 1.55,-1.75 2.96,-3.03l3.3 -3.17 0.81 -0.67c1.41,-1.28 2.63,-2.29 3.77,-3.17 0.74,-0.61 1.69,-1.28 2.83,-2.09 2.09,-1.35 3.84,-2.29 5.26,-2.83 1.41,-0.47 2.63,-0.74 3.57,-0.74 1.01,0.07 1.82,0.41 2.36,1.01 0.54,0.61 0.81,1.28 0.81,2.16 0,0.34 -0.07,0.67 -0.14,1.01 -0.07,0.34 -0.27,0.81 -0.47,1.35 -0.27,0.61 -0.67,1.28 -1.15,2.09 -1.01,1.62 -2.56,3.1 -4.78,4.51 -2.22,1.41 -4.92,2.56 -8.15,3.44l-1.35 0.4 -0.27 0.07zm12.33 -11.05c-0.61,-0.34 -1.21,-0.54 -1.75,-0.54 -0.61,0 -1.28,0.2 -1.89,0.61 -0.67,0.4 -1.62,1.14 -2.83,2.29l-2.9 2.56c-0.74,0.88 -1.48,1.96 -2.09,3.24 2.02,-0.47 3.91,-1.15 5.59,-2.09 1.69,-0.94 3.03,-1.89 3.91,-2.83 0.88,-0.88 1.48,-1.95 1.95,-3.23zm2.96 20.01m0 -6.2c0,-1.35 0.34,-2.43 1.08,-3.23 0.2,-0.2 1.14,-1.15 2.9,-2.83l0.47 -0.47 3.77 -3.84 4.58 -4.45 4.45 -3.91c1.35,-1.21 2.56,-2.09 3.71,-2.56 0.34,-0.2 0.74,-0.27 1.15,-0.27 1.14,0 1.75,0.27 1.82,0.88 0.07,0.61 0.07,1.21 0.07,1.68 0,0.61 -0.07,1.21 -0.14,1.82 -0.27,1.41 -0.47,2.63 -0.67,3.64 -0.2,1.01 -0.4,2.02 -0.67,3.03 -0.07,0.07 -0.4,1.21 -1.01,3.37l-0.67 2.09 -0.61 1.82 0.74 -0.88 1.82 -2.16 0.14 -0.2 1.21 -1.28c0.47,-0.47 1.01,-1.01 1.55,-1.48 0.54,-0.47 1.01,-0.81 1.48,-1.15 2.29,-1.75 4.24,-2.63 5.79,-2.63 2.63,0 4.72,2.76 6.13,8.22l0.47 1.95 0.81 4.11c0.2,1.48 0.74,2.09 1.48,1.89 0.61,-0.2 1.08,-0.4 1.41,-0.67 0.34,-0.2 1.15,-0.81 2.29,-1.68l0.94 -0.88c1.28,-1.28 2.09,-2.16 2.56,-2.56 0.4,-0.34 0.74,-0.54 1.08,-0.54 0.07,0 0.47,0.07 1.08,0.27 0,1.35 -0.34,2.49 -1.08,3.5 -0.74,1.01 -2.29,2.36 -4.51,3.98 -2.29,1.62 -4.04,2.43 -5.32,2.43 -1.62,0 -2.96,-1.35 -3.97,-3.98l-1.42 -3.23c-1.28,-2.76 -2.96,-4.11 -5.12,-4.11 -1.48,0 -2.96,0.67 -4.45,2.02 -0.61,0.54 -1.28,1.28 -2.02,2.22 -1.01,1.28 -2.02,2.76 -3.17,4.58l-0.81 1.28 -1.55 2.76 -0.13 0.27c-0.81,1.15 -1.95,1.62 -3.44,1.48 -0.88,0 -1.55,-0.27 -2.02,-0.88 -0.47,-0.61 -0.61,-1.28 -0.47,-2.16 0.47,-2.22 0.88,-3.97 1.21,-5.26 0.14,-0.47 0.47,-1.48 0.94,-3.03 0.07,-0.2 0.2,-0.74 0.41,-1.48 0.13,-0.74 0.27,-1.89 0.47,-3.3l0.27 -1.95 0.13 -1.48 0.07 -1.08 0.07 -0.88 -1.75 1.21c-2.56,1.69 -4.51,3.1 -5.86,4.31 -0.67,0.61 -1.41,1.28 -2.22,2.09 -0.81,0.81 -1.28,1.28 -1.48,1.48 -1.35,1.55 -2.29,2.36 -2.9,2.36 -0.07,0 -0.47,-0.07 -1.08,-0.27z"/>
   <path class="fil7" d="M319.3 284.6c2.49,-2.36 4.58,-5.32 6.13,-8.76 1.55,-3.44 2.96,-8.49 4.31,-15.16l0.47 -2.76c0.47,-4.11 1.08,-6.74 1.68,-7.95 0.61,-1.14 1.69,-1.75 3.37,-1.75 0.74,0 1.48,0.14 2.09,0.47 0.61,0.34 0.88,0.74 0.81,1.14l-1.62 11.59c-0.07,0.74 -0.14,1.28 -0.2,1.75 -0.07,0.47 -0.07,1.14 -0.07,2.16 0,2.36 0.27,5.59 0.81,9.57 0.34,2.49 1.08,4.92 2.09,7.41l2.02 -3.71c2.63,-5.12 4.65,-9.91 6,-14.42 1.69,-5.59 2.49,-9.36 2.49,-11.39l0.47 -6.33c0,-0.88 0.74,-1.48 2.16,-1.75 0.14,-0.07 0.27,-0.07 0.4,-0.07 0.2,0 0.27,0 0.34,0 1.21,0 1.82,1.01 1.82,3.1 0,2.36 -0.74,7.55 -2.29,15.56 -0.2,1.14 -0.41,2.02 -0.61,2.69 -0.2,0.74 -0.54,2.09 -1.14,4.11 -0.61,2.02 -0.94,3.1 -1.01,3.3 -0.27,0.81 -0.81,2.29 -1.62,4.45 -2.36,5.79 -4.04,9.57 -5.05,11.32 -1.01,1.75 -1.95,2.76 -2.76,2.96 -0.81,0.2 -1.48,0.41 -2.09,0.54 -0.61,0.13 -1.08,0.2 -1.42,0.2 -0.88,0 -1.55,-0.47 -2.09,-1.48 -0.34,-0.61 -0.74,-1.55 -1.21,-2.76l-1.55 -3.97 -0.14 -0.34 -1.08 -3.97 -0.81 -2.96 -0.07 -0.2 -0.27 -0.88 -0.27 0.54 -0.2 0.4 -0.27 0.67 -0.87 1.95c-0.34,0.88 -1.01,2.16 -1.89,3.84l-0.14 0.27 -2.49 4.24c-1.21,2.09 -2.09,3.44 -2.63,4.04 -0.61,0.67 -1.28,1.08 -2.02,1.28 -0.2,0.07 -0.67,0.13 -1.41,0.34 -0.81,0.2 -1.35,0.27 -1.62,0.27 -1.14,0 -1.95,-1.15 -2.56,-3.5 -0.2,-0.81 -0.67,-3.17 -1.48,-7.14 -0.2,-1.28 -0.4,-2.22 -0.47,-2.83 -0.07,-0.61 -0.27,-2.09 -0.61,-4.51l-0.34 -2.49 -0.4 -3.1 -0.4 -2.9 -0.47 -3.44 -0.34 -0.2 -0.4 -0.27c-1.15,-0.87 -1.89,-1.95 -2.22,-3.37 -0.4,-1.35 -0.61,-3.71 -0.61,-7.07 0,-2.22 0.2,-3.97 0.54,-5.32 0.34,-1.28 0.81,-2.36 1.55,-3.17 0.74,-0.74 1.62,-1.14 2.76,-1.14 1.62,0 2.96,0.74 3.98,2.16 0.67,0.94 1.14,1.62 1.35,2.09 0.2,0.47 0.27,1.14 0.27,2.02 0,1.28 -0.07,2.63 -0.2,4.04 -0.2,1.41 -0.34,2.49 -0.4,3.23 -0.07,0.81 -0.14,1.35 -0.14,1.69 0,0.34 0,0.61 0,0.81 0,1.35 0.07,2.83 0.27,4.51 0.2,1.69 0.54,4.45 1.15,8.36 0.27,1.75 0.54,3.37 0.81,4.85 0.27,1.48 0.61,3.1 1.08,4.78l0.34 1.01 0.41 1.35zm53.29 0.67l-1.62 1.89c-1.75,2.02 -3.17,3.5 -4.24,4.38 -1.15,0.88 -2.36,1.62 -3.71,2.22 -2.22,0.87 -3.98,1.35 -5.26,1.35 -1.82,0 -3.3,-0.47 -4.31,-1.35 -1.01,-0.88 -1.48,-2.02 -1.28,-3.3 0.14,-0.88 0.41,-1.82 0.74,-2.83l0.74 -2.02 -1.35 1.21c-0.27,0.27 -0.61,0.34 -1.01,0.27 -0.4,-0.07 -0.67,-0.34 -0.74,-0.74 -0.14,-0.47 -0.14,-0.88 0.07,-1.35 0.2,-0.47 0.61,-1.01 1.21,-1.62l2.09 -2.16 0.94 -0.87 3.1 -2.9 1.01 -0.94c1.08,-0.94 2.29,-1.89 3.57,-2.83 1.28,-0.94 2.49,-1.75 3.64,-2.43 2.36,-1.35 4.38,-2.36 6.06,-2.96 1.69,-0.61 3.1,-0.88 4.31,-0.88 1.41,0 2.42,0.47 3.03,1.35 0.14,0.2 0.2,0.4 0.14,0.67 -0.07,0.27 -0.14,0.47 -0.34,0.54 -0.34,0.2 -0.67,0.34 -1.01,0.54 -0.4,0.2 -0.94,0.34 -1.62,0.47 -0.74,0.14 -1.82,0.54 -3.3,1.21 -1.55,0.74 -3.37,1.75 -5.46,3.17 -1.41,1.01 -2.56,1.89 -3.5,2.63 -1.01,0.81 -1.75,1.55 -2.36,2.22 -2.02,2.22 -3.3,4.24 -3.84,5.93 -0.07,0.2 -0.14,0.54 -0.14,0.94 0,1.21 0.61,1.89 1.82,2.02 0.74,0 1.55,-0.2 2.29,-0.54 0.74,-0.34 1.82,-1.08 3.23,-2.16 0.47,-0.47 0.81,-0.74 1.01,-0.88 0.61,-0.61 1.35,-1.28 2.09,-2.09l1.48 -1.75c2.63,-3.37 4.24,-5.46 4.99,-6.2 0.88,-0.94 1.75,-1.41 2.56,-1.41 0.34,0.07 0.61,0.07 0.81,0.07 1.62,0.2 2.43,1.15 2.43,2.76 0,0.34 0,0.54 -0.07,0.74 -0.27,1.55 -0.74,3.03 -1.41,4.31l-0.61 1.95c-0.27,1.62 -0.4,2.76 -0.4,3.37 0,0.67 0.14,1.28 0.47,1.89 0.27,0.61 0.74,0.74 1.48,0.47 0.47,-0.27 0.94,-0.54 1.41,-0.88 0.47,-0.34 1.21,-0.94 2.22,-1.95l0.81 -0.74c1.01,-1.15 1.69,-1.89 2.02,-2.22 0.34,-0.27 0.74,-0.34 1.14,-0.27 0.34,0.07 0.61,0.2 0.81,0.47 0.2,0.27 0.2,0.61 0.14,0.94 -0.2,0.74 -0.61,1.41 -1.15,2.09 -0.81,0.88 -1.55,1.62 -2.22,2.36 -1.15,1.15 -2.76,2.36 -4.85,3.5 -0.54,0.34 -1.08,0.54 -1.55,0.67 -0.54,0.14 -1.08,0.2 -1.55,0.2 -2.29,0 -3.77,-1.08 -4.45,-3.17 -0.07,-0.34 -0.14,-0.81 -0.2,-1.28 -0.07,-0.47 -0.07,-1.35 -0.07,-2.69l0.13 -1.82 -0.4 0.4zm27.49 -23.78c-0.61,0 -1.21,0 -1.82,0 -0.61,0.07 -1.15,0.07 -1.75,0.07l-1.35 0 -3.1 -0.14c-2.36,0 -3.91,-0.14 -4.58,-0.47 -0.67,-0.34 -1.01,-1.01 -1.01,-2.16 0,-1.01 0.34,-1.62 1.01,-1.89 0.67,-0.2 2.22,-0.34 4.72,-0.34l5.05 0 4.04 0 0.14 -0.34 0.4 -0.94c0.2,-0.47 0.47,-1.08 0.67,-1.75 0.2,-0.67 0.34,-1.14 0.4,-1.35 0.47,-1.95 0.81,-3.17 1.15,-3.64 0.27,-0.47 0.81,-0.67 1.62,-0.67 1.08,0 1.55,0.41 1.48,1.15l-0.67 3.1 -0.4 3.1 -0.14 1.08 -0.07 0.27 1.28 0.13c1.01,0.2 1.69,0.34 1.95,0.54 0.2,0.2 0.41,0.67 0.54,1.41 0.14,0.74 0.2,1.21 0.2,1.42 0,1.28 -0.94,1.95 -2.83,1.95 -0.61,0 -1.14,0 -1.48,-0.07l-0.61 -0.14c-1.08,4.25 -1.95,8.96 -2.63,14.15l-0.14 1.14 -0.81 6.2c-0.07,0.94 -0.13,1.82 -0.2,2.56 -0.07,0.81 -0.14,1.55 -0.14,2.16 0,0.94 0.07,1.89 0.27,2.76l1.48 -0.67c1.82,-1.01 3.37,-2.29 4.51,-3.77 1.15,-1.42 1.95,-2.16 2.36,-2.16 0.27,0 0.61,0.27 0.94,0.81 0.34,0.61 0.54,1.01 0.54,1.21 0,0.4 -0.67,1.21 -2.09,2.49l-1.89 1.82 -0.74 0.67 -1.08 0.94c-1.41,1.21 -2.63,2.09 -3.5,2.7 -0.94,0.61 -1.82,1.01 -2.56,1.28 -0.74,0.27 -1.55,0.4 -2.36,0.4 -2.22,0 -3.37,-1.28 -3.37,-3.91 0,-0.88 0.07,-1.68 0.14,-2.56 0.07,-0.88 0.2,-2.16 0.4,-3.98l0.14 -1.15 0.2 -1.14 0.74 -3.17 0.81 -3.64c-0.88,1.41 -1.41,2.22 -1.48,2.36 -0.47,0.74 -0.94,1.35 -1.35,1.82 -2.22,2.76 -3.37,4.24 -3.57,4.45 -1.01,1.15 -1.82,1.62 -2.42,1.41 -0.74,-0.2 -1.01,-0.61 -0.81,-1.21 0.2,-0.94 0.61,-1.75 1.21,-2.42 0.07,-0.07 0.94,-1.08 2.76,-3.03 0.27,-0.34 0.67,-0.88 1.21,-1.69 0.74,-1.15 1.62,-2.63 2.76,-4.51 1.15,-1.89 2.02,-3.57 2.63,-4.99l0.2 -0.34 0.74 -1.75 1.01 -2.49 0.41 -0.94 0.34 -0.94 0.47 -1.21zm19.4 22.71c-0.07,0.54 -0.14,0.94 -0.07,1.28 0,1.48 0.54,2.69 1.55,3.64 1.01,0.94 2.36,1.41 3.98,1.41 1.15,0 2.22,-0.27 3.23,-0.74 1.62,-0.74 2.9,-1.69 3.84,-2.76 0.67,-0.67 1.41,-1.35 2.16,-2.09 0.74,-0.74 1.28,-1.08 1.69,-1.08 0.27,0 0.67,0.07 1.15,0.27 -0.2,1.55 -0.81,2.9 -1.75,4.04 -1.01,1.14 -2.9,2.69 -5.79,4.58 -1.21,0.74 -2.43,1.28 -3.71,1.62 -1.28,0.34 -2.43,0.47 -3.57,0.47 -2.36,0 -4.24,-0.61 -5.79,-1.82 -1.55,-1.21 -2.49,-2.83 -2.83,-4.85 -0.07,-0.61 -0.14,-1.08 -0.14,-1.41 0,-0.61 0.07,-1.15 0.14,-1.48 0.07,-0.34 0.2,-0.94 0.54,-1.68l-1.35 1.41 -1.82 1.95c-0.67,0.2 -1.14,0 -1.48,-0.61 -0.14,-0.27 -0.2,-0.54 -0.2,-0.81 0,-0.4 0.27,-0.94 0.88,-1.69 0.61,-0.74 1.55,-1.75 2.96,-3.03l3.3 -3.17 0.81 -0.67c1.41,-1.28 2.63,-2.29 3.77,-3.17 0.74,-0.61 1.69,-1.28 2.83,-2.09 2.09,-1.35 3.84,-2.29 5.25,-2.83 1.41,-0.47 2.63,-0.74 3.57,-0.74 1.01,0.07 1.82,0.41 2.36,1.01 0.54,0.61 0.81,1.28 0.81,2.16 0,0.34 -0.07,0.67 -0.14,1.01 -0.07,0.34 -0.27,0.81 -0.47,1.35 -0.27,0.61 -0.67,1.28 -1.14,2.09 -1.01,1.62 -2.56,3.1 -4.78,4.51 -2.22,1.41 -4.92,2.56 -8.15,3.44l-1.35 0.4 -0.27 0.07zm12.33 -11.05c-0.61,-0.34 -1.21,-0.54 -1.75,-0.54 -0.61,0 -1.28,0.2 -1.89,0.61 -0.67,0.4 -1.62,1.14 -2.83,2.29l-2.9 2.56c-0.74,0.88 -1.48,1.96 -2.09,3.24 2.02,-0.47 3.91,-1.15 5.59,-2.09 1.68,-0.94 3.03,-1.89 3.91,-2.83 0.88,-0.88 1.48,-1.95 1.95,-3.23zm12.67 0.81l-0.47 -0.4c-0.74,-0.88 -1.14,-1.48 -1.14,-1.82 0,-0.47 0.61,-1.08 1.89,-1.95l2.43 -1.55c0.61,-0.27 1.28,-0.41 1.89,-0.41 1.48,0 2.76,0.61 3.91,1.82 1.15,1.28 1.82,3.03 2.16,5.32 0.07,0.74 0.14,1.28 0.14,1.69 0,0.94 -0.07,2.02 -0.27,3.17 -0.2,1.21 -0.54,2.69 -1.01,4.45l-0.27 0.81 -1.28 4.31 -0.14 0.47 -0.4 1.68 1.95 -0.61c2.69,-1.08 4.72,-2.43 6,-3.98l2.63 -2.76c0.4,-0.4 0.88,-0.2 1.41,0.67 0.34,0.54 0.47,0.94 0.47,1.15 0,0.67 -1.28,2.22 -3.91,4.58 -1.21,1.08 -2.9,2.16 -5.05,3.23 -1.55,0.74 -2.83,1.35 -3.84,1.68 -1.01,0.34 -2.02,0.47 -2.96,0.47 -1.89,0 -2.83,-0.67 -2.83,-2.02 0,-0.4 0.07,-0.88 0.2,-1.41l0.61 -1.82 1.14 -3.03 0.27 -0.74 0.67 -1.69c0.67,-2.02 1.01,-3.64 1.01,-4.92 0,-1.01 -0.2,-1.89 -0.67,-2.49 -0.47,-0.61 -1.08,-1.01 -1.82,-1.21l-1.35 1.28 -1.95 1.89c-0.81,0.74 -1.62,1.55 -2.43,2.29 -0.41,0.41 -0.88,0.94 -1.41,1.55 -1.41,1.69 -2.29,2.7 -2.76,3.03 -0.47,0.4 -0.94,0.54 -1.41,0.47 -0.81,-0.2 -1.15,-0.61 -0.94,-1.21 0.13,-0.74 0.34,-1.28 0.67,-1.75l3.3 -3.23c0.47,-0.47 1.08,-1.14 1.82,-2.02 0.87,-1.08 1.82,-2.29 2.69,-3.57l1.08 -1.41z"/>
   <path class="fil8 str0" d="M97.04 272.85c2.21,-0.03 4.03,0.49 4.03,1.09l0 0c0,0.6 -1.82,1.12 -4.03,1.09l-96.87 -1.09 96.87 -1.1z"/>
   <path class="fil8" d="M106.81 272.27c0.92,0 1.67,0.75 1.67,1.67 0,0.92 -0.75,1.67 -1.67,1.67 -0.92,0 -1.67,-0.75 -1.67,-1.67 0,-0.92 0.75,-1.67 1.67,-1.67z"/>
   <path class="fil8 str0" d="M1009.47 272.85c-2.21,-0.03 -4.02,0.49 -4.02,1.09l0 0c0,0.6 1.82,1.12 4.02,1.09l96.87 -1.09 -96.87 -1.1z"/>
  </g>
 </g>
</svg>
